<?xml version="1.0" encoding="utf-8"?>
<!-- Generator: Adobe Illustrator 22.1.0, SVG Export Plug-In . SVG Version: 6.00 Build 0)  -->
<svg version="1.1" id="Layer_1" xmlns="http://www.w3.org/2000/svg" xmlns:xlink="http://www.w3.org/1999/xlink" x="0px" y="0px"
	 viewBox="0 0 180 110" style="enable-background:new 0 0 180 110;" xml:space="preserve">
<style type="text/css">
	.st0{fill:#16211F;}
	.st1{filter:url(#Adobe_OpacityMaskFilter);}
	.st2{fill:#FFFFFF;}
	.st3{mask:url(#mask-2_2_);fill:#16211F;}
</style>
<title>stats-1</title>
<desc>Created with Sketch.</desc>
<g id="Symbols_1_">
	<g id="Icons-_x2F_-Statistics-_x2F_-2" transform="translate(-45.000000, -10.000000)">
		<g id="stats-2" transform="translate(43.000000, 7.000000)">
			<path id="Fill-1_1_" class="st0" d="M79.3,108.9l1.4-5.1h22.8l1.4,5.1H79.3z M107.5,100.8c-0.3-1.1-1.2-1.8-2.3-1.8h-6V85.1
				c0-1.3-1.1-2.4-2.4-2.4c-1.3,0-2.4,1.1-2.4,2.4V99h-5V85.1c0-1.3-1.1-2.4-2.4-2.4c-1.3,0-2.4,1.1-2.4,2.4V99h-6
				c-1.1,0-2,0.7-2.3,1.8l-2.6,9.9c-0.2,0.7,0,1.5,0.4,2.1c0.5,0.6,1.2,0.9,1.9,0.9h31.7c0.7,0,1.4-0.3,1.9-0.9
				c0.5-0.6,0.6-1.4,0.4-2.1L107.5,100.8z"/>
			<g id="Group-5" transform="translate(0.000000, 1.222887)">
				<g id="Clip-4">
				</g>
				<defs>
					<filter id="Adobe_OpacityMaskFilter" filterUnits="userSpaceOnUse" x="46.4" y="12.3" width="91.1" height="67.5">
						<feColorMatrix  type="matrix" values="1 0 0 0 0  0 1 0 0 0  0 0 1 0 0  0 0 0 1 0"/>
					</filter>
				</defs>
				<mask maskUnits="userSpaceOnUse" x="46.4" y="12.3" width="91.1" height="67.5" id="mask-2_2_">
					<g class="st1">
						<polygon id="path-1_2_" class="st2" points="46.4,12.3 137.6,12.3 137.6,79.8 46.4,79.8 						"/>
					</g>
				</mask>
				<path id="Fill-3_1_" class="st3" d="M132.1,46.4c-1.2,4.7-4,8.7-7.6,10.7c-1.4,0.8-2.9,1.2-4.3,1.3c1.2-3.6,1.9-7.4,1.9-11.4
					V28.5c1-0.1,2.1-0.1,3,0.2C131.2,30.3,134.2,38.3,132.1,46.4 M92,75c-14,0-25.4-12.5-25.4-27.9V17.7c0-0.3,0.2-0.5,0.5-0.5h49.7
					c0.3,0,0.5,0.2,0.5,0.5v29.5C117.4,62.5,106,75,92,75 M59.5,57.2c-3.5-2-6.3-6.1-7.6-10.7c-2.1-8.2,1-16.1,6.9-17.7
					c1-0.3,2-0.3,3.1-0.2v18.6c0,4,0.7,7.8,1.9,11.4C62.3,58.4,60.9,58,59.5,57.2 M126.5,24.1c-1.4-0.4-2.8-0.5-4.3-0.4v-6
					c0-3-2.4-5.3-5.3-5.3H67.2c-2.9,0-5.3,2.4-5.3,5.3v6c-1.4-0.1-2.9,0-4.3,0.4c-8.5,2.3-13.1,12.9-10.3,23.6
					c1.6,6,5.1,11,9.8,13.7c2.3,1.4,4.9,2.1,7.3,2.1c0.5,0,1,0,1.4-0.1c5.2,9.9,15,16.5,26.2,16.5c11.2,0,21-6.7,26.2-16.5
					c0.5,0.1,0.9,0.1,1.4,0.1c2.5,0,5-0.7,7.3-2.1c4.7-2.7,8.2-7.7,9.8-13.7C139.5,36.9,134.9,26.4,126.5,24.1"/>
			</g>
			<path id="Fill-6" class="st0" d="M100.3,42.9c-0.9,0.7-1.9,1.5-3.1,2.3c-0.8,0.6-1.1,1.6-0.8,2.6c0.5,1.6,0.9,3.1,1.3,4.3
				c0.1,0.5,0.3,0.9,0.4,1.4c-0.5-0.4-1.1-0.7-1.6-1.1c-0.9-0.7-2-1.4-3.2-2.3c-0.8-0.6-1.9-0.6-2.7,0c-1.4,1-2.6,1.8-3.6,2.6
				c-0.4,0.3-0.8,0.6-1.1,0.8c0.2-0.6,0.4-1.3,0.6-1.9c0.3-1.1,0.7-2.4,1.1-3.8c0.3-1,0-2-0.8-2.6c-1.3-1-2.5-1.9-3.6-2.7
				c-0.4-0.3-0.8-0.6-1.2-0.9c0.7,0,1.4,0,2.1,0c1.1,0,2.4,0,3.8-0.1c1,0,1.9-0.7,2.2-1.6c0.5-1.6,1-3,1.4-4.3
				c0.2-0.4,0.3-0.9,0.4-1.3c0.2,0.6,0.4,1.2,0.6,1.8c0.4,1.1,0.8,2.4,1.3,3.8c0.3,1,1.2,1.6,2.2,1.6c1.7,0,3.2,0,4.4,0.1
				c0.5,0,1,0,1.5,0C101.5,42,100.9,42.5,100.3,42.9 M100.6,36.8c-0.8,0-1.7,0-2.7,0c-0.3-0.8-0.5-1.5-0.7-2.1
				c-2-6.1-2.7-8.1-5.2-8.1h0c-2.4,0-3.1,1.9-5,7.7c-0.3,0.8-0.6,1.7-0.9,2.6c-0.8,0-1.5,0-2.1,0c-6.7,0.1-8.7,0.1-9.4,2.4
				c-0.7,2.3,1,3.6,5.7,7.1c0.7,0.5,1.4,1,2.2,1.6c-0.2,0.8-0.5,1.5-0.7,2.1c-1.9,6.2-2.5,8.3-0.6,9.7c0.5,0.4,1,0.6,1.6,0.6
				c1.5,0,3.4-1.4,6.9-3.9c0.7-0.5,1.4-1,2.2-1.6c0.6,0.5,1.2,0.9,1.8,1.3c5.2,3.7,7,5,9,3.6c2-1.4,1.3-3.5-0.5-9.1
				c-0.2-0.8-0.5-1.7-0.8-2.6c0.6-0.5,1.2-0.9,1.7-1.3c5.3-4,6.9-5.2,6.2-7.6C108.6,36.9,106.4,36.9,100.6,36.8"/>
		</g>
	</g>
</g>
</svg>
