<?xml version="1.0" encoding="utf-8"?>
<!-- Generator: Adobe Illustrator 22.1.0, SVG Export Plug-In . SVG Version: 6.00 Build 0)  -->
<svg version="1.1" id="Layer_1" xmlns="http://www.w3.org/2000/svg" xmlns:xlink="http://www.w3.org/1999/xlink" x="0px" y="0px"
	 viewBox="0 0 180 110" style="enable-background:new 0 0 180 110;" xml:space="preserve">
<style type="text/css">
	.st0{fill:#16211F;}
</style>
<title>stats-1</title>
<desc>Created with Sketch.</desc>
<g id="Symbols">
	<g id="Icons-_x2F_-Statistics-_x2F_-1" transform="translate(-46.000000, -11.000000)">
		<g id="stats-1" transform="translate(44.000000, 10.000000)">
			<path id="Fill-1" class="st0" d="M92.3,105.6c-17.5,0-31.8-14.4-31.8-32c0-17.7,14.3-32.1,31.8-32.1c17.5,0,31.8,14.4,31.8,32.1
				C124.1,91.2,109.8,105.6,92.3,105.6 M131.5,12.1c-1.2-0.5-2.6,0.1-3.1,1.3l-13.1,31.7c-4.5-3.7-9.8-6.3-15.7-7.6l8.8-22.4
				c0.5-1.2-0.1-2.6-1.3-3.1c-1.2-0.5-2.6,0.1-3,1.3l-9.2,23.5c-0.9-0.1-1.7-0.1-2.6-0.1c-1,0-1.9,0.1-2.8,0.1l-9.4-23.5
				c-0.5-1.2-1.9-1.8-3-1.3c-1.2,0.5-1.8,1.9-1.3,3.1l8.9,22.4c-5.8,1.3-11.2,3.9-15.6,7.6L55.8,13.4c-0.5-1.2-1.9-1.8-3.1-1.3
				c-1.2,0.5-1.7,1.9-1.2,3.1l14,33.5c-6,6.5-9.6,15.3-9.6,24.8c0,20.3,16.4,36.8,36.5,36.8s36.5-16.5,36.5-36.8
				c0-9.6-3.7-18.4-9.7-24.9l13.7-33.4C133.3,14,132.7,12.6,131.5,12.1"/>
			<path id="Fill-3" class="st0" d="M98.8,75.3c-0.8,0.6-1.1,1.6-0.8,2.6l2.5,8.1l-7-4.9c-0.4-0.3-0.9-0.4-1.3-0.4
				c-0.5,0-0.9,0.1-1.3,0.4l-7,4.9l2.5-8.1c0.3-0.9,0-2-0.8-2.6l-6.8-5.1l8.5-0.2c1,0,1.8-0.6,2.2-1.6l2.8-8l2.8,8
				c0.3,0.9,1.2,1.6,2.2,1.6l8.5,0.2L98.8,75.3z M109.3,65.5l-10.5-0.2l-3.4-9.9c-0.5-1.4-1.8-2.3-3.2-2.3s-2.7,0.9-3.2,2.3
				l-3.4,9.9l-10.5,0.2c-1.5,0-2.7,1-3.2,2.4c-0.4,1.4,0,2.9,1.2,3.8l8.3,6.3l-3,10c-0.3,1.1-0.1,2.2,0.5,3.1
				c0.6,0.9,1.7,1.4,2.8,1.4c0.7,0,1.4-0.2,1.9-0.6l8.6-6l8.6,6c0.6,0.4,1.2,0.6,1.9,0.6c1.1,0,2.1-0.5,2.8-1.4
				c0.6-0.9,0.8-2,0.5-3.1l-3-10l8.3-6.3c1.2-0.9,1.7-2.4,1.2-3.8C112,66.5,110.7,65.5,109.3,65.5z"/>
			<path id="Fill-5" class="st0" d="M72.6,30.4c-1.2,0.5-1.7,1.9-1.2,3.1l1.5,3.7c0.4,0.9,1.2,1.4,2.2,1.4c0.3,0,0.6-0.1,0.9-0.2
				c1.2-0.5,1.7-1.9,1.2-3.1l-1.5-3.7C75.2,30.4,73.8,29.9,72.6,30.4"/>
			<path id="Fill-7" class="st0" d="M68.8,21.3c-1.2,0.5-1.7,1.9-1.2,3.1l1.5,3.7c0.4,0.9,1.2,1.4,2.2,1.4c0.3,0,0.6-0.1,0.9-0.2
				c1.2-0.5,1.7-1.9,1.2-3.1l-1.5-3.7C71.3,21.3,70,20.7,68.8,21.3"/>
			<path id="Fill-9" class="st0" d="M65.2,18.9c0.4,0.9,1.2,1.4,2.2,1.4c0.3,0,0.6-0.1,0.9-0.2c1.2-0.5,1.7-1.9,1.2-3.1L68,13.4
				c-0.5-1.2-1.9-1.8-3.1-1.3c-1.2,0.5-1.7,1.9-1.2,3.1L65.2,18.9z"/>
			<path id="Fill-11" class="st0" d="M116,20.1c0.3,0.1,0.6,0.2,0.9,0.2c0.9,0,1.8-0.5,2.2-1.5l1.5-3.7c0.5-1.2-0.1-2.6-1.3-3.1
				c-1.2-0.5-2.6,0.1-3.1,1.3l-1.5,3.7C114.3,18.3,114.8,19.6,116,20.1"/>
			<path id="Fill-13" class="st0" d="M112.2,29.3c0.3,0.1,0.6,0.2,0.9,0.2c0.9,0,1.8-0.5,2.2-1.5l1.5-3.7c0.5-1.2-0.1-2.6-1.3-3.1
				c-1.2-0.5-2.6,0.1-3.1,1.3l-1.5,3.7C110.5,27.4,111.1,28.8,112.2,29.3"/>
			<path id="Fill-15" class="st0" d="M108.5,38.5c0.3,0.1,0.6,0.2,0.9,0.2c0.9,0,1.8-0.5,2.2-1.5l1.5-3.7c0.5-1.2-0.1-2.6-1.3-3.1
				c-1.2-0.5-2.6,0.1-3.1,1.3l-1.5,3.7C106.7,36.6,107.3,38,108.5,38.5"/>
		</g>
	</g>
</g>
</svg>
