<?xml version="1.0" encoding="utf-8"?>
<!-- Generator: Adobe Illustrator 22.1.0, SVG Export Plug-In . SVG Version: 6.00 Build 0)  -->
<svg version="1.1" id="Layer_1" xmlns="http://www.w3.org/2000/svg" xmlns:xlink="http://www.w3.org/1999/xlink" x="0px" y="0px"
	 viewBox="0 0 180 110" style="enable-background:new 0 0 180 110;" xml:space="preserve">
<style type="text/css">
	.st0{filter:url(#Adobe_OpacityMaskFilter);}
	.st1{fill:#FFFFFF;}
	.st2{mask:url(#mask-2_2_);fill:#16211F;}
	.st3{filter:url(#Adobe_OpacityMaskFilter_1_);}
	.st4{mask:url(#mask-4_2_);fill:#16211F;}
	.st5{fill:#16211F;}
</style>
<title>stats-1</title>
<desc>Created with Sketch.</desc>
<g id="Symbols">
	<g id="Icons-_x2F_-Statistics-_x2F_-4" transform="translate(-50.000000, -6.000000)">
		<g id="stats-4" transform="translate(50.000000, 6.000000)">
			<g id="Group-3" transform="translate(0.000000, 70.463736)">
				<g id="Clip-2">
				</g>
				<defs>
					<filter id="Adobe_OpacityMaskFilter" filterUnits="userSpaceOnUse" x="52.5" y="3.3" width="34.9" height="36.2">
						<feColorMatrix  type="matrix" values="1 0 0 0 0  0 1 0 0 0  0 0 1 0 0  0 0 0 1 0"/>
					</filter>
				</defs>
				<mask maskUnits="userSpaceOnUse" x="52.5" y="3.3" width="34.9" height="36.2" id="mask-2_2_">
					<g class="st0">
						<polygon id="path-1_2_" class="st1" points="52.5,3.3 87.3,3.3 87.3,39.5 52.5,39.5 						"/>
					</g>
				</mask>
				<path id="Fill-1" class="st2" d="M85.6,12.3c-1.4-0.5-2.8,0.2-3.3,1.5l-6.6,18l-5.5-6.7c-0.6-0.7-1.6-1.1-2.5-0.9l-8.6,1.6
					l7.1-19.2c0.5-1.3-0.2-2.8-1.5-3.3C63.2,3,61.7,3.7,61.2,5l-8.6,23.4c-0.3,0.9-0.1,1.8,0.5,2.5c0.6,0.7,1.6,1,2.5,0.9l11.5-2.1
					l7.4,9c0.5,0.6,1.2,0.9,2,0.9c0.1,0,0.3,0,0.4,0c0.9-0.2,1.7-0.8,2-1.6l8.2-22.2C87.7,14.3,87,12.8,85.6,12.3"/>
			</g>
			<g id="Group-6" transform="translate(41.594595, 70.463736)">
				<g id="Clip-5">
				</g>
				<defs>
					<filter id="Adobe_OpacityMaskFilter_1_" filterUnits="userSpaceOnUse" x="52.6" y="3.3" width="34.9" height="36.2">
						<feColorMatrix  type="matrix" values="1 0 0 0 0  0 1 0 0 0  0 0 1 0 0  0 0 0 1 0"/>
					</filter>
				</defs>
				<mask maskUnits="userSpaceOnUse" x="52.6" y="3.3" width="34.9" height="36.2" id="mask-4_2_">
					<g class="st3">
						<polygon id="path-3_2_" class="st1" points="52.6,3.3 87.4,3.3 87.4,39.5 52.6,39.5 						"/>
					</g>
				</mask>
				<path id="Fill-4" class="st4" d="M78.7,5c-0.5-1.3-2-2-3.3-1.5c-1.3,0.5-2,2-1.6,3.3l7.1,19.2l-8.6-1.6
					c-0.9-0.2-1.9,0.2-2.5,0.9l-5.5,6.7l-6.6-18c-0.5-1.3-2-2-3.3-1.5c-1.3,0.5-2,2-1.6,3.3l8.2,22.2c0.3,0.9,1.1,1.5,2,1.7
					c0.1,0,0.3,0,0.4,0c0.8,0,1.5-0.3,2-0.9l7.4-9l11.5,2.1c0.9,0.2,1.9-0.2,2.5-0.9c0.6-0.7,0.8-1.7,0.5-2.5L78.7,5z"/>
			</g>
			<path id="Fill-7" class="st5" d="M119.7,43.6l4.4,7.6l-7.7,4.4c-0.8,0.5-1.3,1.3-1.3,2.2v8.7h-8.9c-0.9,0-1.8,0.5-2.2,1.3
				l-4.4,7.6L92,71c-0.4-0.2-0.8-0.3-1.3-0.3s-0.9,0.1-1.3,0.3l-7.7,4.4l-4.4-7.6C76.8,67,76,66.5,75,66.5h-8.9v-8.7
				c0-0.9-0.5-1.8-1.3-2.2l-7.7-4.4l4.4-7.6c0.5-0.8,0.5-1.8,0-2.6l-4.4-7.6l7.7-4.4c0.8-0.5,1.3-1.3,1.3-2.2v-8.7H75
				c0.9,0,1.8-0.5,2.2-1.3l4.4-7.6l7.7,4.4c0.8,0.5,1.8,0.5,2.6,0l7.7-4.4l4.4,7.6c0.5,0.8,1.3,1.3,2.2,1.3h8.9v8.7
				c0,0.9,0.5,1.8,1.3,2.2l7.7,4.4l-4.4,7.6C119.3,41.8,119.3,42.8,119.7,43.6z M125,42.3l5-8.5c0.7-1.2,0.3-2.8-1-3.5l-8.6-4.9
				v-9.8c0-1.4-1.2-2.6-2.6-2.6h-10l-5-8.5c-0.7-1.2-2.3-1.7-3.5-0.9l-8.6,4.9l-8.6-4.9c-0.6-0.3-1.3-0.4-2-0.3
				c-0.7,0.2-1.2,0.6-1.6,1.2l-5,8.5h-10c-1.4,0-2.6,1.1-2.6,2.6v9.8l-8.6,4.9c-1.2,0.7-1.7,2.3-1,3.5l5,8.5l-5,8.5
				c-0.7,1.2-0.3,2.8,1,3.5l8.6,4.9V69c0,1.4,1.2,2.6,2.6,2.6h10l5,8.5c0.7,1.2,2.3,1.6,3.6,0.9l8.6-4.9l8.6,4.9
				c0.4,0.2,0.9,0.3,1.3,0.3c0.9,0,1.8-0.5,2.3-1.3l5-8.5h10c1.4,0,2.6-1.1,2.6-2.6v-9.8l8.6-4.9c0.6-0.3,1-0.9,1.2-1.6
				c0.2-0.7,0.1-1.4-0.3-1.9L125,42.3z"/>
			<path id="Fill-9" class="st5" d="M90.7,60.4c-10.1,0-18.3-8.1-18.3-18.1c0-10,8.2-18.1,18.3-18.1S109,32.3,109,42.3
				C109,52.3,100.8,60.4,90.7,60.4 M90.7,19.1c-13,0-23.5,10.4-23.5,23.2c0,12.8,10.5,23.2,23.5,23.2s23.5-10.4,23.5-23.2
				C114.2,29.5,103.7,19.1,90.7,19.1"/>
		</g>
	</g>
</g>
</svg>
