<?xml version="1.0" encoding="utf-8"?>
<!-- Generator: Adobe Illustrator 22.1.0, SVG Export Plug-In . SVG Version: 6.00 Build 0)  -->
<svg version="1.1" id="Layer_1" xmlns="http://www.w3.org/2000/svg" xmlns:xlink="http://www.w3.org/1999/xlink" x="0px" y="0px"
	 viewBox="0 0 180 110" style="enable-background:new 0 0 180 110;" xml:space="preserve">
<style type="text/css">
	.st0{fill:#16211F;}
	.st1{filter:url(#Adobe_OpacityMaskFilter);}
	.st2{fill:#FFFFFF;}
	.st3{mask:url(#mask-2_2_);fill:#16211F;}
	.st4{filter:url(#Adobe_OpacityMaskFilter_1_);}
	.st5{mask:url(#mask-4_2_);fill:#16211F;}
</style>
<title>stats-1</title>
<desc>Created with Sketch.</desc>
<g id="Symbols">
	<g id="Icons-_x2F_-Statistics-_x2F_-3" transform="translate(-38.000000, -9.000000)">
		<g id="stats-3" transform="translate(38.000000, 6.000000)">
			<path id="Fill-1" class="st0" d="M90.1,36.5c1.5,0,2.8,1.2,2.8,2.7c0,1.8-1.6,4.3-2.8,4.3s-2.8-2.5-2.8-4.3
				C87.3,37.7,88.6,36.5,90.1,36.5 M90.1,48.4c4.7,0,7.6-5.4,7.6-9.2c0-4.2-3.4-7.5-7.6-7.5s-7.6,3.4-7.6,7.5
				C82.5,42.9,85.4,48.4,90.1,48.4"/>
			<path id="Fill-3" class="st0" d="M101.7,55.7l-3,21.2c-0.1,0.9-0.9,1.5-1.8,1.5c-1.3,0-2.3,1-2.4,2.3l-2,27.4h-4.7l-2.2-27.4
				c-0.1-1.3-1.2-2.2-2.4-2.2c-0.9,0-1.6-0.7-1.8-1.5l-3-21.2c-0.1-0.7,0.2-1.2,0.4-1.4s0.6-0.6,1.4-0.6h3.4c4,3.5,8.8,3.5,12.8,0
				h3.6c0.7,0,1.2,0.4,1.4,0.6C101.5,54.5,101.8,55,101.7,55.7 M99.9,48.8h-4.6c-0.6,0-1.3,0.3-1.7,0.7c-2.6,2.6-4.9,2.6-7.5,0
				c-0.5-0.5-1.1-0.7-1.7-0.7h-4.3c-1.9,0-3.8,0.8-5,2.3c-1.3,1.5-1.8,3.4-1.6,5.3l3,21.2c0.4,2.5,2.1,4.5,4.3,5.3l2.3,27.8
				c0.1,1.3,1.2,2.2,2.4,2.2h9.2c1.3,0,2.3-1,2.4-2.3l2-27.8c2.2-0.8,3.9-2.8,4.3-5.3l3-21.2c0.3-1.9-0.3-3.9-1.6-5.3
				C103.7,49.6,101.8,48.8,99.9,48.8"/>
			<path id="Fill-5" class="st0" d="M56.3,36.5c1.5,0,2.8,1.2,2.8,2.7c0,1.8-1.6,4.3-2.8,4.3s-2.8-2.5-2.8-4.3
				C53.6,37.7,54.8,36.5,56.3,36.5 M56.3,48.4c4.7,0,7.6-5.4,7.6-9.2c0-4.2-3.4-7.5-7.6-7.5c-4.2,0-7.6,3.4-7.6,7.5
				C48.7,42.9,51.7,48.4,56.3,48.4"/>
			<g id="Group-9" transform="translate(0.000000, 40.848480)">
				<g id="Clip-8">
				</g>
				<defs>
					<filter id="Adobe_OpacityMaskFilter" filterUnits="userSpaceOnUse" x="39.7" y="7.9" width="33.1" height="64.2">
						<feColorMatrix  type="matrix" values="1 0 0 0 0  0 1 0 0 0  0 0 1 0 0  0 0 0 1 0"/>
					</filter>
				</defs>
				<mask maskUnits="userSpaceOnUse" x="39.7" y="7.9" width="33.1" height="64.2" id="mask-2_2_">
					<g class="st1">
						<polygon id="path-1_2_" class="st2" points="39.7,7.9 72.8,7.9 72.8,72.2 39.7,72.2 						"/>
					</g>
				</mask>
				<path id="Fill-7" class="st3" d="M67.9,14.9l-3,21.2c-0.1,0.9-0.9,1.5-1.8,1.5c-1.3,0-2.3,1-2.4,2.3l-2,27.4H54l-2.2-27.4
					c-0.1-1.3-1.2-2.2-2.4-2.2c-0.9,0-1.6-0.7-1.8-1.5l-3-21.2c-0.1-0.7,0.2-1.2,0.4-1.4c0.2-0.2,0.6-0.6,1.4-0.6h3.4
					c4,3.5,8.8,3.5,12.8,0h3.6c0.7,0,1.2,0.4,1.4,0.6C67.7,13.7,68,14.2,67.9,14.9 M66.1,7.9h-4.6c-0.6,0-1.3,0.3-1.7,0.7
					c-2.6,2.6-4.9,2.6-7.5,0c-0.5-0.5-1.1-0.7-1.7-0.7h-4.3c-1.9,0-3.8,0.8-5,2.3c-1.3,1.5-1.8,3.4-1.5,5.3l3,21.2
					c0.4,2.5,2.1,4.5,4.3,5.3l2.3,27.8c0.1,1.3,1.2,2.2,2.4,2.2H61c1.3,0,2.3-1,2.4-2.3l2-27.8c2.2-0.8,3.9-2.8,4.3-5.3l3-21.2
					c0.3-1.9-0.3-3.8-1.6-5.3C69.9,8.8,68.1,7.9,66.1,7.9"/>
			</g>
			<path id="Fill-10" class="st0" d="M123.9,36.5c1.5,0,2.8,1.2,2.8,2.7c0,1.8-1.6,4.3-2.8,4.3s-2.8-2.5-2.8-4.3
				C121.1,37.7,122.4,36.5,123.9,36.5 M123.9,48.4c4.7,0,7.6-5.4,7.6-9.2c0-4.2-3.4-7.5-7.6-7.5c-4.2,0-7.6,3.4-7.6,7.5
				C116.2,42.9,119.2,48.4,123.9,48.4"/>
			<path id="Fill-12" class="st0" d="M73.2,35.2c-1.2,0-2.8-2.5-2.8-4.3c0-1.5,1.2-2.7,2.8-2.7s2.8,1.2,2.8,2.7
				C76,32.7,74.4,35.2,73.2,35.2 M80.9,30.9c0-4.2-3.4-7.5-7.6-7.5c-4.2,0-7.6,3.4-7.6,7.5c0,3.7,3,9.2,7.6,9.2
				C77.9,40.1,80.9,34.7,80.9,30.9"/>
			<g id="Group-16" transform="translate(39.448276, 1.248480)">
				<g id="Clip-15">
				</g>
				<defs>
					<filter id="Adobe_OpacityMaskFilter_1_" filterUnits="userSpaceOnUse" x="43" y="9.7" width="15.3" height="16.7">
						<feColorMatrix  type="matrix" values="1 0 0 0 0  0 1 0 0 0  0 0 1 0 0  0 0 0 1 0"/>
					</filter>
				</defs>
				<mask maskUnits="userSpaceOnUse" x="43" y="9.7" width="15.3" height="16.7" id="mask-4_2_">
					<g class="st4">
						<polygon id="path-3_2_" class="st2" points="43,9.7 58.3,9.7 58.3,26.4 43,26.4 						"/>
					</g>
				</mask>
				<path id="Fill-14" class="st5" d="M50.7,14.6c1.5,0,2.8,1.2,2.8,2.7c0,1.8-1.6,4.3-2.8,4.3s-2.8-2.5-2.8-4.3
					C47.9,15.8,49.1,14.6,50.7,14.6 M50.7,26.4c4.7,0,7.6-5.4,7.6-9.2c0-4.2-3.4-7.5-7.6-7.5S43,13.1,43,17.2
					C43,21,46,26.4,50.7,26.4"/>
			</g>
			<path id="Fill-17" class="st0" d="M107,35.2c-1.2,0-2.8-2.5-2.8-4.3c0-1.5,1.2-2.7,2.8-2.7s2.8,1.2,2.8,2.7
				C109.8,32.7,108.2,35.2,107,35.2 M114.6,30.9c0-4.2-3.4-7.5-7.6-7.5c-4.2,0-7.6,3.4-7.6,7.5c0,3.7,3,9.2,7.6,9.2
				C111.7,40.1,114.6,34.7,114.6,30.9"/>
			<path id="Fill-19" class="st0" d="M135.5,55.7l-3,21.2c-0.1,0.9-0.9,1.5-1.8,1.5c-1.3,0-2.3,1-2.4,2.3l-2,27.4h-4.7l-2.2-27.4
				c-0.1-1.3-1.2-2.2-2.4-2.2c-0.9,0-1.6-0.7-1.8-1.5l-3-21.2c-0.1-0.7,0.2-1.2,0.4-1.4c0.2-0.2,0.6-0.6,1.4-0.6h3.4
				c4,3.5,8.8,3.5,12.8,0h3.6c0.7,0,1.2,0.4,1.4,0.6C135.2,54.5,135.6,55,135.5,55.7 M138.7,51.1c-1.3-1.5-3.1-2.3-5-2.3h-4.6
				c-0.6,0-1.3,0.3-1.7,0.7c-2.6,2.6-4.9,2.6-7.5,0c-0.5-0.5-1.1-0.7-1.7-0.7h-4.3c-1.9,0-3.8,0.8-5,2.3c-1.3,1.5-1.8,3.4-1.6,5.3
				l3,21.2c0.4,2.5,2.1,4.5,4.3,5.3l2.3,27.8c0.1,1.3,1.2,2.2,2.4,2.2h9.2c1.3,0,2.3-1,2.4-2.3l2-27.8c2.2-0.8,3.9-2.8,4.3-5.3
				l3-21.2C140.5,54.5,140,52.6,138.7,51.1"/>
		</g>
	</g>
</g>
</svg>
